<?xml version="1.0" encoding="utf-8" standalone="no"?>
<!DOCTYPE svg PUBLIC "-//W3C//DTD SVG 1.1//EN"
  "http://www.w3.org/Graphics/SVG/1.1/DTD/svg11.dtd">
<svg xmlns:xlink="http://www.w3.org/1999/xlink" width="352.8pt" height="352.8pt" viewBox="0 0 352.8 352.8" xmlns="http://www.w3.org/2000/svg" version="1.1">
 <metadata>
  <rdf:RDF xmlns:dc="http://purl.org/dc/elements/1.1/" xmlns:cc="http://creativecommons.org/ns#" xmlns:rdf="http://www.w3.org/1999/02/22-rdf-syntax-ns#">
   <cc:Work>
    <dc:type rdf:resource="http://purl.org/dc/dcmitype/StillImage"/>
    <dc:date>2026-07-01T12:32:21.275033</dc:date>
    <dc:format>image/svg+xml</dc:format>
    <dc:creator>
     <cc:Agent>
      <dc:title>Matplotlib v3.10.8, https://matplotlib.org/</dc:title>
     </cc:Agent>
    </dc:creator>
   </cc:Work>
  </rdf:RDF>
 </metadata>
 <defs>
  <style type="text/css">*{stroke-linejoin: round; stroke-linecap: butt}</style>
 </defs>
 <g id="figure_1">
  <g id="patch_1">
   <path d="M 0 352.8 
L 352.8 352.8 
L 352.8 0 
L 0 0 
L 0 352.8 
z
" style="fill: none"/>
  </g>
  <g id="axes_1">
   <g id="LineCollection_1">
    <path d="M 139.982921 213.625989 
L 171.469983 226.972831 
" clip-path="url(#pea2d4255e7)" style="fill: none; stroke: #737373; stroke-opacity: 0.4; stroke-width: 2.389822"/>
    <path d="M 139.982921 213.625989 
L 188.464009 185.989079 
" clip-path="url(#pea2d4255e7)" style="fill: none; stroke: #737373; stroke-opacity: 0.4; stroke-width: 2.612886"/>
    <path d="M 139.982921 213.625989 
L 163.530143 250.050712 
" clip-path="url(#pea2d4255e7)" style="fill: none; stroke: #737373; stroke-opacity: 0.4; stroke-width: 2.136634"/>
    <path d="M 139.982921 213.625989 
L 90.240999 211.333256 
" clip-path="url(#pea2d4255e7)" style="fill: none; stroke: #737373; stroke-opacity: 0.4; stroke-width: 2.136634"/>
    <path d="M 139.982921 213.625989 
L 70.681806 233.582123 
" clip-path="url(#pea2d4255e7)" style="fill: none; stroke: #737373; stroke-opacity: 0.4; stroke-width: 2.136634"/>
    <path d="M 139.982921 213.625989 
L 78.310436 253.333323 
" clip-path="url(#pea2d4255e7)" style="fill: none; stroke: #737373; stroke-opacity: 0.4; stroke-width: 2.136634"/>
    <path d="M 139.982921 213.625989 
L 157.007701 205.01354 
" clip-path="url(#pea2d4255e7)" style="fill: none; stroke: #737373; stroke-opacity: 0.4; stroke-width: 1.836306"/>
    <path d="M 139.982921 213.625989 
L 213.041793 176.640105 
" clip-path="url(#pea2d4255e7)" style="fill: none; stroke: #737373; stroke-opacity: 0.4; stroke-width: 1.836306"/>
    <path d="M 139.982921 213.625989 
L 70.519538 196.110551 
" clip-path="url(#pea2d4255e7)" style="fill: none; stroke: #737373; stroke-opacity: 0.4; stroke-width: 1.836306"/>
    <path d="M 139.982921 213.625989 
L 97.351866 156.476729 
" clip-path="url(#pea2d4255e7)" style="fill: none; stroke: #737373; stroke-opacity: 0.4; stroke-width: 2.136634"/>
    <path d="M 139.982921 213.625989 
L 153.374201 316.234711 
" clip-path="url(#pea2d4255e7)" style="fill: none; stroke: #737373; stroke-opacity: 0.4; stroke-width: 1.444911"/>
    <path d="M 139.982921 213.625989 
L 191.574755 208.633907 
" clip-path="url(#pea2d4255e7)" style="fill: none; stroke: #737373; stroke-opacity: 0.4; stroke-width: 2.136634"/>
    <path d="M 139.982921 213.625989 
L 119.198763 297.738307 
" clip-path="url(#pea2d4255e7)" style="fill: none; stroke: #737373; stroke-opacity: 0.4; stroke-width: 1.836306"/>
    <path d="M 139.982921 213.625989 
L 196.316357 251.990047 
" clip-path="url(#pea2d4255e7)" style="fill: none; stroke: #737373; stroke-opacity: 0.4; stroke-width: 1.836306"/>
    <path d="M 139.982921 213.625989 
L 130.895084 272.110202 
" clip-path="url(#pea2d4255e7)" style="fill: none; stroke: #737373; stroke-opacity: 0.4; stroke-width: 1.836306"/>
    <path d="M 139.982921 213.625989 
L 211.524844 113.881563 
" clip-path="url(#pea2d4255e7)" style="fill: none; stroke: #737373; stroke-opacity: 0.4; stroke-width: 1.836306"/>
    <path d="M 171.469983 226.972831 
L 188.464009 185.989079 
" clip-path="url(#pea2d4255e7)" style="fill: none; stroke: #737373; stroke-opacity: 0.4; stroke-width: 2.81455"/>
    <path d="M 171.469983 226.972831 
L 163.530143 250.050712 
" clip-path="url(#pea2d4255e7)" style="fill: none; stroke: #737373; stroke-opacity: 0.4; stroke-width: 2.136634"/>
    <path d="M 171.469983 226.972831 
L 157.007701 205.01354 
" clip-path="url(#pea2d4255e7)" style="fill: none; stroke: #737373; stroke-opacity: 0.4; stroke-width: 2.389822"/>
    <path d="M 171.469983 226.972831 
L 191.574755 208.633907 
" clip-path="url(#pea2d4255e7)" style="fill: none; stroke: #737373; stroke-opacity: 0.4; stroke-width: 2.612886"/>
    <path d="M 171.469983 226.972831 
L 119.198763 297.738307 
" clip-path="url(#pea2d4255e7)" style="fill: none; stroke: #737373; stroke-opacity: 0.4; stroke-width: 1.444911"/>
    <path d="M 171.469983 226.972831 
L 196.316357 251.990047 
" clip-path="url(#pea2d4255e7)" style="fill: none; stroke: #737373; stroke-opacity: 0.4; stroke-width: 1.836306"/>
    <path d="M 171.469983 226.972831 
L 130.895084 272.110202 
" clip-path="url(#pea2d4255e7)" style="fill: none; stroke: #737373; stroke-opacity: 0.4; stroke-width: 1.836306"/>
    <path d="M 171.469983 226.972831 
L 232.449904 196.387896 
" clip-path="url(#pea2d4255e7)" style="fill: none; stroke: #737373; stroke-opacity: 0.4; stroke-width: 1.836306"/>
    <path d="M 188.464009 185.989079 
L 163.530143 250.050712 
" clip-path="url(#pea2d4255e7)" style="fill: none; stroke: #737373; stroke-opacity: 0.4; stroke-width: 2.136634"/>
    <path d="M 188.464009 185.989079 
L 157.007701 205.01354 
" clip-path="url(#pea2d4255e7)" style="fill: none; stroke: #737373; stroke-opacity: 0.4; stroke-width: 2.389822"/>
    <path d="M 188.464009 185.989079 
L 213.041793 176.640105 
" clip-path="url(#pea2d4255e7)" style="fill: none; stroke: #737373; stroke-opacity: 0.4; stroke-width: 2.612886"/>
    <path d="M 188.464009 185.989079 
L 259.425119 206.267477 
" clip-path="url(#pea2d4255e7)" style="fill: none; stroke: #737373; stroke-opacity: 0.4; stroke-width: 1.444911"/>
    <path d="M 188.464009 185.989079 
L 191.574755 208.633907 
" clip-path="url(#pea2d4255e7)" style="fill: none; stroke: #737373; stroke-opacity: 0.4; stroke-width: 2.136634"/>
    <path d="M 188.464009 185.989079 
L 223.587644 96.038276 
" clip-path="url(#pea2d4255e7)" style="fill: none; stroke: #737373; stroke-opacity: 0.4; stroke-width: 1.836306"/>
    <path d="M 188.464009 185.989079 
L 211.151477 136.533829 
" clip-path="url(#pea2d4255e7)" style="fill: none; stroke: #737373; stroke-opacity: 0.4; stroke-width: 1.836306"/>
    <path d="M 188.464009 185.989079 
L 260.553021 146.427962 
" clip-path="url(#pea2d4255e7)" style="fill: none; stroke: #737373; stroke-opacity: 0.4; stroke-width: 1.836306"/>
    <path d="M 163.530143 250.050712 
L 157.007701 205.01354 
" clip-path="url(#pea2d4255e7)" style="fill: none; stroke: #737373; stroke-opacity: 0.4; stroke-width: 2.136634"/>
    <path d="M 163.530143 250.050712 
L 153.374201 316.234711 
" clip-path="url(#pea2d4255e7)" style="fill: none; stroke: #737373; stroke-opacity: 0.4; stroke-width: 2.136634"/>
    <path d="M 163.530143 250.050712 
L 191.574755 208.633907 
" clip-path="url(#pea2d4255e7)" style="fill: none; stroke: #737373; stroke-opacity: 0.4; stroke-width: 2.136634"/>
    <path d="M 90.240999 211.333256 
L 78.310436 253.333323 
" clip-path="url(#pea2d4255e7)" style="fill: none; stroke: #737373; stroke-opacity: 0.4; stroke-width: 1.836306"/>
    <path d="M 90.240999 211.333256 
L 70.519538 196.110551 
" clip-path="url(#pea2d4255e7)" style="fill: none; stroke: #737373; stroke-opacity: 0.4; stroke-width: 2.136634"/>
    <path d="M 70.681806 233.582123 
L 78.310436 253.333323 
" clip-path="url(#pea2d4255e7)" style="fill: none; stroke: #737373; stroke-opacity: 0.4; stroke-width: 2.612886"/>
    <path d="M 70.681806 233.582123 
L 70.519538 196.110551 
" clip-path="url(#pea2d4255e7)" style="fill: none; stroke: #737373; stroke-opacity: 0.4; stroke-width: 2.136634"/>
    <path d="M 70.681806 233.582123 
L 36.565289 264.397312 
" clip-path="url(#pea2d4255e7)" style="fill: none; stroke: #737373; stroke-opacity: 0.4; stroke-width: 2.136634"/>
    <path d="M 78.310436 253.333323 
L 36.565289 264.397312 
" clip-path="url(#pea2d4255e7)" style="fill: none; stroke: #737373; stroke-opacity: 0.4; stroke-width: 2.136634"/>
    <path d="M 213.041793 176.640105 
L 232.449904 196.387896 
" clip-path="url(#pea2d4255e7)" style="fill: none; stroke: #737373; stroke-opacity: 0.4; stroke-width: 2.136634"/>
    <path d="M 213.041793 176.640105 
L 260.553021 146.427962 
" clip-path="url(#pea2d4255e7)" style="fill: none; stroke: #737373; stroke-opacity: 0.4; stroke-width: 2.136634"/>
    <path d="M 213.041793 176.640105 
L 250.569824 148.124174 
" clip-path="url(#pea2d4255e7)" style="fill: none; stroke: #737373; stroke-opacity: 0.4; stroke-width: 2.389822"/>
    <path d="M 259.425119 206.267477 
L 250.569824 148.124174 
" clip-path="url(#pea2d4255e7)" style="fill: none; stroke: #737373; stroke-opacity: 0.4; stroke-width: 1.836306"/>
    <path d="M 191.574755 208.633907 
L 250.569824 148.124174 
" clip-path="url(#pea2d4255e7)" style="fill: none; stroke: #737373; stroke-opacity: 0.4; stroke-width: 2.136634"/>
    <path d="M 299.694987 184.067997 
L 260.553021 146.427962 
" clip-path="url(#pea2d4255e7)" style="fill: none; stroke: #737373; stroke-opacity: 0.4; stroke-width: 2.136634"/>
    <path d="M 299.694987 184.067997 
L 250.569824 148.124174 
" clip-path="url(#pea2d4255e7)" style="fill: none; stroke: #737373; stroke-opacity: 0.4; stroke-width: 1.836306"/>
    <path d="M 279.855974 192.399675 
L 260.553021 146.427962 
" clip-path="url(#pea2d4255e7)" style="fill: none; stroke: #737373; stroke-opacity: 0.4; stroke-width: 2.136634"/>
    <path d="M 279.855974 192.399675 
L 250.569824 148.124174 
" clip-path="url(#pea2d4255e7)" style="fill: none; stroke: #737373; stroke-opacity: 0.4; stroke-width: 2.389822"/>
    <path d="M 287.340611 65.250447 
L 260.553021 146.427962 
" clip-path="url(#pea2d4255e7)" style="fill: none; stroke: #737373; stroke-opacity: 0.4; stroke-width: 1.444911"/>
    <path d="M 287.340611 65.250447 
L 250.569824 148.124174 
" clip-path="url(#pea2d4255e7)" style="fill: none; stroke: #737373; stroke-opacity: 0.4; stroke-width: 1.836306"/>
    <path d="M 196.316357 251.990047 
L 250.569824 148.124174 
" clip-path="url(#pea2d4255e7)" style="fill: none; stroke: #737373; stroke-opacity: 0.4; stroke-width: 1.444911"/>
    <path d="M 316.234711 160.272044 
L 260.553021 146.427962 
" clip-path="url(#pea2d4255e7)" style="fill: none; stroke: #737373; stroke-opacity: 0.4; stroke-width: 2.136634"/>
    <path d="M 316.234711 160.272044 
L 250.569824 148.124174 
" clip-path="url(#pea2d4255e7)" style="fill: none; stroke: #737373; stroke-opacity: 0.4; stroke-width: 1.444911"/>
    <path d="M 298.947892 135.886208 
L 260.553021 146.427962 
" clip-path="url(#pea2d4255e7)" style="fill: none; stroke: #737373; stroke-opacity: 0.4; stroke-width: 1.836306"/>
    <path d="M 298.947892 135.886208 
L 250.569824 148.124174 
" clip-path="url(#pea2d4255e7)" style="fill: none; stroke: #737373; stroke-opacity: 0.4; stroke-width: 2.136634"/>
    <path d="M 251.745361 94.543524 
L 224.209495 63.335596 
" clip-path="url(#pea2d4255e7)" style="fill: none; stroke: #737373; stroke-opacity: 0.4; stroke-width: 2.612886"/>
    <path d="M 251.745361 94.543524 
L 223.587644 96.038276 
" clip-path="url(#pea2d4255e7)" style="fill: none; stroke: #737373; stroke-opacity: 0.4; stroke-width: 2.389822"/>
    <path d="M 251.745361 94.543524 
L 284.005132 102.099658 
" clip-path="url(#pea2d4255e7)" style="fill: none; stroke: #737373; stroke-opacity: 0.4; stroke-width: 2.136634"/>
    <path d="M 251.745361 94.543524 
L 260.553021 146.427962 
" clip-path="url(#pea2d4255e7)" style="fill: none; stroke: #737373; stroke-opacity: 0.4; stroke-width: 2.612886"/>
    <path d="M 251.745361 94.543524 
L 250.569824 148.124174 
" clip-path="url(#pea2d4255e7)" style="fill: none; stroke: #737373; stroke-opacity: 0.4; stroke-width: 2.389822"/>
    <path d="M 205.587065 36.565289 
L 224.209495 63.335596 
" clip-path="url(#pea2d4255e7)" style="fill: none; stroke: #737373; stroke-opacity: 0.4; stroke-width: 1.836306"/>
    <path d="M 205.587065 36.565289 
L 223.587644 96.038276 
" clip-path="url(#pea2d4255e7)" style="fill: none; stroke: #737373; stroke-opacity: 0.4; stroke-width: 2.136634"/>
    <path d="M 205.587065 36.565289 
L 211.524844 113.881563 
" clip-path="url(#pea2d4255e7)" style="fill: none; stroke: #737373; stroke-opacity: 0.4; stroke-width: 1.836306"/>
    <path d="M 224.209495 63.335596 
L 211.524844 113.881563 
" clip-path="url(#pea2d4255e7)" style="fill: none; stroke: #737373; stroke-opacity: 0.4; stroke-width: 3"/>
    <path d="M 310.820627 91.942475 
L 284.005132 102.099658 
" clip-path="url(#pea2d4255e7)" style="fill: none; stroke: #737373; stroke-opacity: 0.4; stroke-width: 2.389822"/>
    <path d="M 310.820627 91.942475 
L 250.569824 148.124174 
" clip-path="url(#pea2d4255e7)" style="fill: none; stroke: #737373; stroke-opacity: 0.4; stroke-width: 1.836306"/>
    <path d="M 223.587644 96.038276 
L 250.569824 148.124174 
" clip-path="url(#pea2d4255e7)" style="fill: none; stroke: #737373; stroke-opacity: 0.4; stroke-width: 2.389822"/>
    <path d="M 211.151477 136.533829 
L 211.524844 113.881563 
" clip-path="url(#pea2d4255e7)" style="fill: none; stroke: #737373; stroke-opacity: 0.4; stroke-width: 1.836306"/>
    <path d="M 211.151477 136.533829 
L 250.569824 148.124174 
" clip-path="url(#pea2d4255e7)" style="fill: none; stroke: #737373; stroke-opacity: 0.4; stroke-width: 1.836306"/>
    <path d="M 284.005132 102.099658 
L 260.553021 146.427962 
" clip-path="url(#pea2d4255e7)" style="fill: none; stroke: #737373; stroke-opacity: 0.4; stroke-width: 2.389822"/>
    <path d="M 284.005132 102.099658 
L 250.569824 148.124174 
" clip-path="url(#pea2d4255e7)" style="fill: none; stroke: #737373; stroke-opacity: 0.4; stroke-width: 1.836306"/>
    <path d="M 232.449904 196.387896 
L 260.553021 146.427962 
" clip-path="url(#pea2d4255e7)" style="fill: none; stroke: #737373; stroke-opacity: 0.4; stroke-width: 2.136634"/>
    <path d="M 232.449904 196.387896 
L 250.569824 148.124174 
" clip-path="url(#pea2d4255e7)" style="fill: none; stroke: #737373; stroke-opacity: 0.4; stroke-width: 2.136634"/>
    <path d="M 211.524844 113.881563 
L 260.553021 146.427962 
" clip-path="url(#pea2d4255e7)" style="fill: none; stroke: #737373; stroke-opacity: 0.4; stroke-width: 2.389822"/>
    <path d="M 211.524844 113.881563 
L 250.569824 148.124174 
" clip-path="url(#pea2d4255e7)" style="fill: none; stroke: #737373; stroke-opacity: 0.4; stroke-width: 2.389822"/>
    <path d="M 260.553021 146.427962 
L 250.569824 148.124174 
" clip-path="url(#pea2d4255e7)" style="fill: none; stroke: #737373; stroke-opacity: 0.4; stroke-width: 2.612886"/>
   </g>
   <g id="PathCollection_1">
    <path d="M 139.982921 224.745178 
C 142.931765 224.745178 145.760228 223.57359 147.845375 221.488443 
C 149.930522 219.403296 151.10211 216.574833 151.10211 213.625989 
C 151.10211 210.677146 149.930522 207.848682 147.845375 205.763535 
C 145.760228 203.678388 142.931765 202.5068 139.982921 202.5068 
C 137.034078 202.5068 134.205614 203.678388 132.120467 205.763535 
C 130.03532 207.848682 128.863732 210.677146 128.863732 213.625989 
C 128.863732 216.574833 130.03532 219.403296 132.120467 221.488443 
C 134.205614 223.57359 137.034078 224.745178 139.982921 224.745178 
z
" clip-path="url(#pea2d4255e7)" style="fill: #1f77b4; stroke: #ffffff; stroke-width: 0.8"/>
    <path d="M 171.469983 236.21231 
C 173.920322 236.21231 176.270631 235.23878 178.003281 233.506129 
C 179.735932 231.773478 180.709462 229.42317 180.709462 226.972831 
C 180.709462 224.522493 179.735932 222.172184 178.003281 220.439533 
C 176.270631 218.706883 173.920322 217.733353 171.469983 217.733353 
C 169.019645 217.733353 166.669336 218.706883 164.936685 220.439533 
C 163.204035 222.172184 162.230505 224.522493 162.230505 226.972831 
C 162.230505 229.42317 163.204035 231.773478 164.936685 233.506129 
C 166.669336 235.23878 169.019645 236.21231 171.469983 236.21231 
z
" clip-path="url(#pea2d4255e7)" style="fill: #1f77b4; stroke: #ffffff; stroke-width: 0.8"/>
    <path d="M 188.464009 195.845187 
C 191.07788 195.845187 193.585045 194.806685 195.43333 192.9584 
C 197.281615 191.110114 198.320117 188.602949 198.320117 185.989079 
C 198.320117 183.375209 197.281615 180.868044 195.43333 179.019758 
C 193.585045 177.171473 191.07788 176.132971 188.464009 176.132971 
C 185.850139 176.132971 183.342974 177.171473 181.494689 179.019758 
C 179.646404 180.868044 178.607902 183.375209 178.607902 185.989079 
C 178.607902 188.602949 179.646404 191.110114 181.494689 192.9584 
C 183.342974 194.806685 185.850139 195.845187 188.464009 195.845187 
z
" clip-path="url(#pea2d4255e7)" style="fill: #1f77b4; stroke: #ffffff; stroke-width: 0.8"/>
    <path d="M 163.530143 257.32993 
C 165.460614 257.32993 167.312278 256.562945 168.677327 255.197896 
C 170.042376 253.832847 170.809361 251.981183 170.809361 250.050712 
C 170.809361 248.120241 170.042376 246.268577 168.677327 244.903527 
C 167.312278 243.538478 165.460614 242.771494 163.530143 242.771494 
C 161.599672 242.771494 159.748008 243.538478 158.382959 244.903527 
C 157.017909 246.268577 156.250925 248.120241 156.250925 250.050712 
C 156.250925 251.981183 157.017909 253.832847 158.382959 255.197896 
C 159.748008 256.562945 161.599672 257.32993 163.530143 257.32993 
z
" clip-path="url(#pea2d4255e7)" style="fill: #1f77b4; stroke: #ffffff; stroke-width: 0.8"/>
    <path d="M 90.240999 216.186068 
C 91.52798 216.186068 92.762423 215.674745 93.672456 214.764713 
C 94.582488 213.85468 95.093811 212.620237 95.093811 211.333256 
C 95.093811 210.046276 94.582488 208.811833 93.672456 207.9018 
C 92.762423 206.991767 91.52798 206.480444 90.240999 206.480444 
C 88.954019 206.480444 87.719576 206.991767 86.809543 207.9018 
C 85.89951 208.811833 85.388188 210.046276 85.388188 211.333256 
C 85.388188 212.620237 85.89951 213.85468 86.809543 214.764713 
C 87.719576 215.674745 88.954019 216.186068 90.240999 216.186068 
z
" clip-path="url(#pea2d4255e7)" style="fill: #ff7f0e; stroke: #ffffff; stroke-width: 0.8"/>
    <path d="M 70.681806 240.001789 
C 72.384321 240.001789 74.017335 239.325373 75.221196 238.121513 
C 76.425056 236.917652 77.101473 235.284638 77.101473 233.582123 
C 77.101473 231.879607 76.425056 230.246593 75.221196 229.042733 
C 74.017335 227.838872 72.384321 227.162456 70.681806 227.162456 
C 68.97929 227.162456 67.346276 227.838872 66.142416 229.042733 
C 64.938556 230.246593 64.262139 231.879607 64.262139 233.582123 
C 64.262139 235.284638 64.938556 236.917652 66.142416 238.121513 
C 67.346276 239.325373 68.97929 240.001789 70.681806 240.001789 
z
" clip-path="url(#pea2d4255e7)" style="fill: #ff7f0e; stroke: #ffffff; stroke-width: 0.8"/>
    <path d="M 78.310436 259.519469 
C 79.951021 259.519469 81.524633 258.867657 82.684701 257.707589 
C 83.84477 256.54752 84.496581 254.973908 84.496581 253.333323 
C 84.496581 251.692738 83.84477 250.119126 82.684701 248.959057 
C 81.524633 247.798989 79.951021 247.147177 78.310436 247.147177 
C 76.669851 247.147177 75.096239 247.798989 73.93617 248.959057 
C 72.776101 250.119126 72.12429 251.692738 72.12429 253.333323 
C 72.12429 254.973908 72.776101 256.54752 73.93617 257.707589 
C 75.096239 258.867657 76.669851 259.519469 78.310436 259.519469 
z
" clip-path="url(#pea2d4255e7)" style="fill: #ff7f0e; stroke: #ffffff; stroke-width: 0.8"/>
    <path d="M 157.007701 211.199686 
C 158.648286 211.199686 160.221898 210.547875 161.381967 209.387806 
C 162.542035 208.227737 163.193847 206.654125 163.193847 205.01354 
C 163.193847 203.372955 162.542035 201.799343 161.381967 200.639275 
C 160.221898 199.479206 158.648286 198.827395 157.007701 198.827395 
C 155.367116 198.827395 153.793504 199.479206 152.633436 200.639275 
C 151.473367 201.799343 150.821555 203.372955 150.821555 205.01354 
C 150.821555 206.654125 151.473367 208.227737 152.633436 209.387806 
C 153.793504 210.547875 155.367116 211.199686 157.007701 211.199686 
z
" clip-path="url(#pea2d4255e7)" style="fill: #1f77b4; stroke: #ffffff; stroke-width: 0.8"/>
    <path d="M 213.041793 183.714234 
C 214.917874 183.714234 216.717368 182.968859 218.043957 181.642269 
C 219.370547 180.31568 220.115921 178.516186 220.115921 176.640105 
C 220.115921 174.764025 219.370547 172.964531 218.043957 171.637941 
C 216.717368 170.311352 214.917874 169.565977 213.041793 169.565977 
C 211.165713 169.565977 209.366219 170.311352 208.039629 171.637941 
C 206.71304 172.964531 205.967665 174.764025 205.967665 176.640105 
C 205.967665 178.516186 206.71304 180.31568 208.039629 181.642269 
C 209.366219 182.968859 211.165713 183.714234 213.041793 183.714234 
z
" clip-path="url(#pea2d4255e7)" style="fill: #2ca02c; stroke: #ffffff; stroke-width: 0.8"/>
    <path d="M 259.425119 209.239205 
C 260.21323 209.239205 260.969169 208.926085 261.526448 208.368806 
C 262.083727 207.811527 262.396847 207.055588 262.396847 206.267477 
C 262.396847 205.479365 262.083727 204.723427 261.526448 204.166148 
C 260.969169 203.608869 260.21323 203.295749 259.425119 203.295749 
C 258.637007 203.295749 257.881069 203.608869 257.32379 204.166148 
C 256.766511 204.723427 256.453391 205.479365 256.453391 206.267477 
C 256.453391 207.055588 256.766511 207.811527 257.32379 208.368806 
C 257.881069 208.926085 258.637007 209.239205 259.425119 209.239205 
z
" clip-path="url(#pea2d4255e7)" style="fill: #2ca02c; stroke: #ffffff; stroke-width: 0.8"/>
    <path d="M 70.519538 200.963363 
C 71.806519 200.963363 73.040962 200.45204 73.950995 199.542007 
C 74.861027 198.631975 75.37235 197.397532 75.37235 196.110551 
C 75.37235 194.82357 74.861027 193.589128 73.950995 192.679095 
C 73.040962 191.769062 71.806519 191.257739 70.519538 191.257739 
C 69.232558 191.257739 67.998115 191.769062 67.088082 192.679095 
C 66.178049 193.589128 65.666727 194.82357 65.666727 196.110551 
C 65.666727 197.397532 66.178049 198.631975 67.088082 199.542007 
C 67.998115 200.45204 69.232558 200.963363 70.519538 200.963363 
z
" clip-path="url(#pea2d4255e7)" style="fill: #ff7f0e; stroke: #ffffff; stroke-width: 0.8"/>
    <path d="M 97.351866 159.448458 
C 98.139977 159.448458 98.895916 159.135338 99.453195 158.578059 
C 100.010474 158.02078 100.323594 157.264841 100.323594 156.476729 
C 100.323594 155.688618 100.010474 154.932679 99.453195 154.3754 
C 98.895916 153.818121 98.139977 153.505001 97.351866 153.505001 
C 96.563754 153.505001 95.807815 153.818121 95.250536 154.3754 
C 94.693257 154.932679 94.380137 155.688618 94.380137 156.476729 
C 94.380137 157.264841 94.693257 158.02078 95.250536 158.578059 
C 95.807815 159.135338 96.563754 159.448458 97.351866 159.448458 
z
" clip-path="url(#pea2d4255e7)" style="fill: #1f77b4; stroke: #ffffff; stroke-width: 0.8"/>
    <path d="M 153.374201 319.666167 
C 154.284234 319.666167 155.157116 319.304607 155.800607 318.661117 
C 156.444097 318.017626 156.805657 317.144744 156.805657 316.234711 
C 156.805657 315.324678 156.444097 314.451795 155.800607 313.808305 
C 155.157116 313.164814 154.284234 312.803255 153.374201 312.803255 
C 152.464168 312.803255 151.591285 313.164814 150.947795 313.808305 
C 150.304305 314.451795 149.942745 315.324678 149.942745 316.234711 
C 149.942745 317.144744 150.304305 318.017626 150.947795 318.661117 
C 151.591285 319.304607 152.464168 319.666167 153.374201 319.666167 
z
" clip-path="url(#pea2d4255e7)" style="fill: #1f77b4; stroke: #ffffff; stroke-width: 0.8"/>
    <path d="M 191.574755 215.708035 
C 193.450836 215.708035 195.250329 214.96266 196.576919 213.636071 
C 197.903508 212.309481 198.648883 210.509987 198.648883 208.633907 
C 198.648883 206.757826 197.903508 204.958332 196.576919 203.631743 
C 195.250329 202.305153 193.450836 201.559778 191.574755 201.559778 
C 189.698674 201.559778 187.89918 202.305153 186.572591 203.631743 
C 185.246001 204.958332 184.500627 206.757826 184.500627 208.633907 
C 184.500627 210.509987 185.246001 212.309481 186.572591 213.636071 
C 187.89918 214.96266 189.698674 215.708035 191.574755 215.708035 
z
" clip-path="url(#pea2d4255e7)" style="fill: #1f77b4; stroke: #ffffff; stroke-width: 0.8"/>
    <path d="M 299.694987 187.904482 
C 300.712435 187.904482 301.688347 187.500245 302.407792 186.780801 
C 303.127236 186.061357 303.531472 185.085445 303.531472 184.067997 
C 303.531472 183.050549 303.127236 182.074637 302.407792 181.355193 
C 301.688347 180.635749 300.712435 180.231512 299.694987 180.231512 
C 298.67754 180.231512 297.701627 180.635749 296.982183 181.355193 
C 296.262739 182.074637 295.858503 183.050549 295.858503 184.067997 
C 295.858503 185.085445 296.262739 186.061357 296.982183 186.780801 
C 297.701627 187.500245 298.67754 187.904482 299.694987 187.904482 
z
" clip-path="url(#pea2d4255e7)" style="fill: #2ca02c; stroke: #ffffff; stroke-width: 0.8"/>
    <path d="M 279.855974 196.939065 
C 281.059834 196.939065 282.214549 196.460766 283.065807 195.609509 
C 283.917065 194.758251 284.395364 193.603536 284.395364 192.399675 
C 284.395364 191.195815 283.917065 190.0411 283.065807 189.189842 
C 282.214549 188.338584 281.059834 187.860285 279.855974 187.860285 
C 278.652113 187.860285 277.497398 188.338584 276.64614 189.189842 
C 275.794883 190.0411 275.316584 191.195815 275.316584 192.399675 
C 275.316584 193.603536 275.794883 194.758251 276.64614 195.609509 
C 277.497398 196.460766 278.652113 196.939065 279.855974 196.939065 
z
" clip-path="url(#pea2d4255e7)" style="fill: #2ca02c; stroke: #ffffff; stroke-width: 0.8"/>
    <path d="M 36.565289 268.599971 
C 37.679847 268.599971 38.748906 268.157152 39.537018 267.369041 
C 40.325129 266.580929 40.767948 265.51187 40.767948 264.397312 
C 40.767948 263.282754 40.325129 262.213696 39.537018 261.425584 
C 38.748906 260.637473 37.679847 260.194654 36.565289 260.194654 
C 35.450731 260.194654 34.381673 260.637473 33.593561 261.425584 
C 32.805449 262.213696 32.362631 263.282754 32.362631 264.397312 
C 32.362631 265.51187 32.805449 266.580929 33.593561 267.369041 
C 34.381673 268.157152 35.450731 268.599971 36.565289 268.599971 
z
" clip-path="url(#pea2d4255e7)" style="fill: #ff7f0e; stroke: #ffffff; stroke-width: 0.8"/>
    <path d="M 119.198763 300.710035 
C 119.986874 300.710035 120.742813 300.396915 121.300092 299.839636 
C 121.857371 299.282357 122.170491 298.526419 122.170491 297.738307 
C 122.170491 296.950196 121.857371 296.194257 121.300092 295.636978 
C 120.742813 295.079699 119.986874 294.766579 119.198763 294.766579 
C 118.410651 294.766579 117.654713 295.079699 117.097434 295.636978 
C 116.540155 296.194257 116.227035 296.950196 116.227035 297.738307 
C 116.227035 298.526419 116.540155 299.282357 117.097434 299.839636 
C 117.654713 300.396915 118.410651 300.710035 119.198763 300.710035 
z
" clip-path="url(#pea2d4255e7)" style="fill: #1f77b4; stroke: #ffffff; stroke-width: 0.8"/>
    <path d="M 287.340611 68.222175 
C 288.128722 68.222175 288.884661 67.909055 289.44194 67.351776 
C 289.999219 66.794497 290.312339 66.038559 290.312339 65.250447 
C 290.312339 64.462336 289.999219 63.706397 289.44194 63.149118 
C 288.884661 62.591839 288.128722 62.278719 287.340611 62.278719 
C 286.552499 62.278719 285.796561 62.591839 285.239282 63.149118 
C 284.682003 63.706397 284.368883 64.462336 284.368883 65.250447 
C 284.368883 66.038559 284.682003 66.794497 285.239282 67.351776 
C 285.796561 67.909055 286.552499 68.222175 287.340611 68.222175 
z
" clip-path="url(#pea2d4255e7)" style="fill: #2ca02c; stroke: #ffffff; stroke-width: 0.8"/>
    <path d="M 196.316357 255.826532 
C 197.333805 255.826532 198.309718 255.422295 199.029162 254.702851 
C 199.748606 253.983407 200.152842 253.007495 200.152842 251.990047 
C 200.152842 250.972599 199.748606 249.996687 199.029162 249.277243 
C 198.309718 248.557798 197.333805 248.153562 196.316357 248.153562 
C 195.29891 248.153562 194.322997 248.557798 193.603553 249.277243 
C 192.884109 249.996687 192.479873 250.972599 192.479873 251.990047 
C 192.479873 253.007495 192.884109 253.983407 193.603553 254.702851 
C 194.322997 255.422295 195.29891 255.826532 196.316357 255.826532 
z
" clip-path="url(#pea2d4255e7)" style="fill: #1f77b4; stroke: #ffffff; stroke-width: 0.8"/>
    <path d="M 316.234711 163.703501 
C 317.144744 163.703501 318.017626 163.341941 318.661117 162.69845 
C 319.304607 162.05496 319.666167 161.182077 319.666167 160.272044 
C 319.666167 159.362012 319.304607 158.489129 318.661117 157.845638 
C 318.017626 157.202148 317.144744 156.840588 316.234711 156.840588 
C 315.324678 156.840588 314.451795 157.202148 313.808305 157.845638 
C 313.164814 158.489129 312.803255 159.362012 312.803255 160.272044 
C 312.803255 161.182077 313.164814 162.05496 313.808305 162.69845 
C 314.451795 163.341941 315.324678 163.703501 316.234711 163.703501 
z
" clip-path="url(#pea2d4255e7)" style="fill: #2ca02c; stroke: #ffffff; stroke-width: 0.8"/>
    <path d="M 130.895084 275.541658 
C 131.805117 275.541658 132.678 275.180098 133.32149 274.536608 
C 133.964981 273.893118 134.326541 273.020235 134.326541 272.110202 
C 134.326541 271.200169 133.964981 270.327286 133.32149 269.683796 
C 132.678 269.040306 131.805117 268.678746 130.895084 268.678746 
C 129.985052 268.678746 129.112169 269.040306 128.468678 269.683796 
C 127.825188 270.327286 127.463628 271.200169 127.463628 272.110202 
C 127.463628 273.020235 127.825188 273.893118 128.468678 274.536608 
C 129.112169 275.180098 129.985052 275.541658 130.895084 275.541658 
z
" clip-path="url(#pea2d4255e7)" style="fill: #1f77b4; stroke: #ffffff; stroke-width: 0.8"/>
    <path d="M 298.947892 139.722693 
C 299.965339 139.722693 300.941252 139.318457 301.660696 138.599012 
C 302.38014 137.879568 302.784376 136.903656 302.784376 135.886208 
C 302.784376 134.86876 302.38014 133.892848 301.660696 133.173404 
C 300.941252 132.45396 299.965339 132.049723 298.947892 132.049723 
C 297.930444 132.049723 296.954531 132.45396 296.235087 133.173404 
C 295.515643 133.892848 295.111407 134.86876 295.111407 135.886208 
C 295.111407 136.903656 295.515643 137.879568 296.235087 138.599012 
C 296.954531 139.318457 297.930444 139.722693 298.947892 139.722693 
z
" clip-path="url(#pea2d4255e7)" style="fill: #2ca02c; stroke: #ffffff; stroke-width: 0.8"/>
    <path d="M 251.745361 102.405978 
C 253.830508 102.405978 255.830534 101.57754 257.304955 100.103118 
C 258.779377 98.628697 259.607815 96.628671 259.607815 94.543524 
C 259.607815 92.458377 258.779377 90.458351 257.304955 88.983929 
C 255.830534 87.509508 253.830508 86.68107 251.745361 86.68107 
C 249.660214 86.68107 247.660188 87.509508 246.185766 88.983929 
C 244.711345 90.458351 243.882907 92.458377 243.882907 94.543524 
C 243.882907 96.628671 244.711345 98.628697 246.185766 100.103118 
C 247.660188 101.57754 249.660214 102.405978 251.745361 102.405978 
z
" clip-path="url(#pea2d4255e7)" style="fill: #2ca02c; stroke: #ffffff; stroke-width: 0.8"/>
    <path d="M 205.587065 41.104679 
C 206.790925 41.104679 207.945641 40.62638 208.796899 39.775123 
C 209.648156 38.923865 210.126455 37.76915 210.126455 36.565289 
C 210.126455 35.361429 209.648156 34.206714 208.796899 33.355456 
C 207.945641 32.504198 206.790925 32.025899 205.587065 32.025899 
C 204.383205 32.025899 203.22849 32.504198 202.377232 33.355456 
C 201.525974 34.206714 201.047675 35.361429 201.047675 36.565289 
C 201.047675 37.76915 201.525974 38.923865 202.377232 39.775123 
C 203.22849 40.62638 204.383205 41.104679 205.587065 41.104679 
z
" clip-path="url(#pea2d4255e7)" style="fill: #2ca02c; stroke: #ffffff; stroke-width: 0.8"/>
    <path d="M 224.209495 69.755262 
C 225.912011 69.755262 227.545025 69.078846 228.748885 67.874985 
C 229.952745 66.671125 230.629162 65.038111 230.629162 63.335596 
C 230.629162 61.63308 229.952745 60.000066 228.748885 58.796206 
C 227.545025 57.592345 225.912011 56.915929 224.209495 56.915929 
C 222.50698 56.915929 220.873965 57.592345 219.670105 58.796206 
C 218.466245 60.000066 217.789828 61.63308 217.789828 63.335596 
C 217.789828 65.038111 218.466245 66.671125 219.670105 67.874985 
C 220.873965 69.078846 222.50698 69.755262 224.209495 69.755262 
z
" clip-path="url(#pea2d4255e7)" style="fill: #2ca02c; stroke: #ffffff; stroke-width: 0.8"/>
    <path d="M 310.820627 96.145133 
C 311.935185 96.145133 313.004243 95.702315 313.792355 94.914203 
C 314.580466 94.126092 315.023285 93.057033 315.023285 91.942475 
C 315.023285 90.827917 314.580466 89.758858 313.792355 88.970747 
C 313.004243 88.182635 311.935185 87.739817 310.820627 87.739817 
C 309.706069 87.739817 308.63701 88.182635 307.848898 88.970747 
C 307.060787 89.758858 306.617968 90.827917 306.617968 91.942475 
C 306.617968 93.057033 307.060787 94.126092 307.848898 94.914203 
C 308.63701 95.702315 309.706069 96.145133 310.820627 96.145133 
z
" clip-path="url(#pea2d4255e7)" style="fill: #2ca02c; stroke: #ffffff; stroke-width: 0.8"/>
    <path d="M 223.587644 102.224422 
C 225.228229 102.224422 226.801841 101.572611 227.96191 100.412542 
C 229.121979 99.252473 229.77379 97.678861 229.77379 96.038276 
C 229.77379 94.397691 229.121979 92.824079 227.96191 91.664011 
C 226.801841 90.503942 225.228229 89.852131 223.587644 89.852131 
C 221.947059 89.852131 220.373448 90.503942 219.213379 91.664011 
C 218.05331 92.824079 217.401499 94.397691 217.401499 96.038276 
C 217.401499 97.678861 218.05331 99.252473 219.213379 100.412542 
C 220.373448 101.572611 221.947059 102.224422 223.587644 102.224422 
z
" clip-path="url(#pea2d4255e7)" style="fill: #2ca02c; stroke: #ffffff; stroke-width: 0.8"/>
    <path d="M 211.151477 140.736487 
C 212.266035 140.736487 213.335094 140.293668 214.123205 139.505557 
C 214.911317 138.717445 215.354135 137.648387 215.354135 136.533829 
C 215.354135 135.419271 214.911317 134.350212 214.123205 133.5621 
C 213.335094 132.773989 212.266035 132.33117 211.151477 132.33117 
C 210.036919 132.33117 208.96786 132.773989 208.179749 133.5621 
C 207.391637 134.350212 206.948818 135.419271 206.948818 136.533829 
C 206.948818 137.648387 207.391637 138.717445 208.179749 139.505557 
C 208.96786 140.293668 210.036919 140.736487 211.151477 140.736487 
z
" clip-path="url(#pea2d4255e7)" style="fill: #2ca02c; stroke: #ffffff; stroke-width: 0.8"/>
    <path d="M 284.005132 108.285804 
C 285.645717 108.285804 287.219328 107.633992 288.379397 106.473923 
C 289.539466 105.313855 290.191277 103.740243 290.191277 102.099658 
C 290.191277 100.459073 289.539466 98.885461 288.379397 97.725392 
C 287.219328 96.565324 285.645717 95.913512 284.005132 95.913512 
C 282.364546 95.913512 280.790935 96.565324 279.630866 97.725392 
C 278.470797 98.885461 277.818986 100.459073 277.818986 102.099658 
C 277.818986 103.740243 278.470797 105.313855 279.630866 106.473923 
C 280.790935 107.633992 282.364546 108.285804 284.005132 108.285804 
z
" clip-path="url(#pea2d4255e7)" style="fill: #2ca02c; stroke: #ffffff; stroke-width: 0.8"/>
    <path d="M 232.449904 202.078322 
C 233.959023 202.078322 235.406535 201.478743 236.473644 200.411635 
C 237.540752 199.344527 238.140331 197.897015 238.140331 196.387896 
C 238.140331 194.878777 237.540752 193.431265 236.473644 192.364157 
C 235.406535 191.297049 233.959023 190.69747 232.449904 190.69747 
C 230.940786 190.69747 229.493273 191.297049 228.426165 192.364157 
C 227.359057 193.431265 226.759478 194.878777 226.759478 196.387896 
C 226.759478 197.897015 227.359057 199.344527 228.426165 200.411635 
C 229.493273 201.478743 230.940786 202.078322 232.449904 202.078322 
z
" clip-path="url(#pea2d4255e7)" style="fill: #2ca02c; stroke: #ffffff; stroke-width: 0.8"/>
    <path d="M 211.524844 121.744017 
C 213.609991 121.744017 215.610017 120.91558 217.084439 119.441158 
C 218.558861 117.966736 219.387298 115.966711 219.387298 113.881563 
C 219.387298 111.796416 218.558861 109.796391 217.084439 108.321969 
C 215.610017 106.847547 213.609991 106.01911 211.524844 106.01911 
C 209.439697 106.01911 207.439672 106.847547 205.96525 108.321969 
C 204.490828 109.796391 203.66239 111.796416 203.66239 113.881563 
C 203.66239 115.966711 204.490828 117.966736 205.96525 119.441158 
C 207.439672 120.91558 209.439697 121.744017 211.524844 121.744017 
z
" clip-path="url(#pea2d4255e7)" style="fill: #2ca02c; stroke: #ffffff; stroke-width: 0.8"/>
    <path d="M 260.553021 157.00442 
C 263.35793 157.00442 266.048335 155.890018 268.031706 153.906647 
C 270.015077 151.923277 271.129479 149.232871 271.129479 146.427962 
C 271.129479 143.623052 270.015077 140.932647 268.031706 138.949276 
C 266.048335 136.965906 263.35793 135.851503 260.553021 135.851503 
C 257.748111 135.851503 255.057706 136.965906 253.074335 138.949276 
C 251.090965 140.932647 249.976562 143.623052 249.976562 146.427962 
C 249.976562 149.232871 251.090965 151.923277 253.074335 153.906647 
C 255.057706 155.890018 257.748111 157.00442 260.553021 157.00442 
z
" clip-path="url(#pea2d4255e7)" style="fill: #2ca02c; stroke: #ffffff; stroke-width: 0.8"/>
    <path d="M 250.569824 160.011087 
C 253.72227 160.011087 256.746025 158.758607 258.975141 156.529491 
C 261.204257 154.300375 262.456737 151.27662 262.456737 148.124174 
C 262.456737 144.971728 261.204257 141.947973 258.975141 139.718857 
C 256.746025 137.489741 253.72227 136.237261 250.569824 136.237261 
C 247.417378 136.237261 244.393623 137.489741 242.164507 139.718857 
C 239.935391 141.947973 238.682911 144.971728 238.682911 148.124174 
C 238.682911 151.27662 239.935391 154.300375 242.164507 156.529491 
C 244.393623 158.758607 247.417378 160.011087 250.569824 160.011087 
z
" clip-path="url(#pea2d4255e7)" style="fill: #2ca02c; stroke: #ffffff; stroke-width: 0.8"/>
   </g>
  </g>
 </g>
 <defs>
  <clipPath id="pea2d4255e7">
   <rect x="7.2" y="7.2" width="338.4" height="338.4"/>
  </clipPath>
 </defs>
</svg>
