<?xml version="1.0" encoding="utf-8" standalone="no"?>
<!DOCTYPE svg PUBLIC "-//W3C//DTD SVG 1.1//EN"
  "http://www.w3.org/Graphics/SVG/1.1/DTD/svg11.dtd">
<svg xmlns:xlink="http://www.w3.org/1999/xlink" width="352.8pt" height="352.8pt" viewBox="0 0 352.8 352.8" xmlns="http://www.w3.org/2000/svg" version="1.1">
 <metadata>
  <rdf:RDF xmlns:dc="http://purl.org/dc/elements/1.1/" xmlns:cc="http://creativecommons.org/ns#" xmlns:rdf="http://www.w3.org/1999/02/22-rdf-syntax-ns#">
   <cc:Work>
    <dc:type rdf:resource="http://purl.org/dc/dcmitype/StillImage"/>
    <dc:date>2026-07-02T00:01:57.377889</dc:date>
    <dc:format>image/svg+xml</dc:format>
    <dc:creator>
     <cc:Agent>
      <dc:title>Matplotlib v3.10.8, https://matplotlib.org/</dc:title>
     </cc:Agent>
    </dc:creator>
   </cc:Work>
  </rdf:RDF>
 </metadata>
 <defs>
  <style type="text/css">*{stroke-linejoin: round; stroke-linecap: butt}</style>
 </defs>
 <g id="figure_1">
  <g id="patch_1">
   <path d="M 0 352.8 
L 352.8 352.8 
L 352.8 0 
L 0 0 
L 0 352.8 
z
" style="fill: none"/>
  </g>
  <g id="axes_1">
   <g id="LineCollection_1">
    <path d="M 76.943738 36.565289 
L 83.612294 93.932817 
" clip-path="url(#p97e9fdacdb)" style="fill: none; stroke: #737373; stroke-opacity: 0.4; stroke-width: 1.75"/>
    <path d="M 83.612294 93.932817 
L 100.509018 115.576376 
" clip-path="url(#p97e9fdacdb)" style="fill: none; stroke: #737373; stroke-opacity: 0.4; stroke-width: 2.267767"/>
    <path d="M 83.612294 93.932817 
L 57.310902 76.383607 
" clip-path="url(#p97e9fdacdb)" style="fill: none; stroke: #737373; stroke-opacity: 0.4; stroke-width: 2.476424"/>
    <path d="M 83.612294 93.932817 
L 100.230545 140.294208 
" clip-path="url(#p97e9fdacdb)" style="fill: none; stroke: #737373; stroke-opacity: 0.4; stroke-width: 2.476424"/>
    <path d="M 83.612294 93.932817 
L 67.768202 108.019039 
" clip-path="url(#p97e9fdacdb)" style="fill: none; stroke: #737373; stroke-opacity: 0.4; stroke-width: 2.476424"/>
    <path d="M 100.509018 115.576376 
L 100.230545 140.294208 
" clip-path="url(#p97e9fdacdb)" style="fill: none; stroke: #737373; stroke-opacity: 0.4; stroke-width: 3"/>
    <path d="M 57.310902 76.383607 
L 67.768202 108.019039 
" clip-path="url(#p97e9fdacdb)" style="fill: none; stroke: #737373; stroke-opacity: 0.4; stroke-width: 2.030931"/>
    <path d="M 100.230545 140.294208 
L 67.768202 108.019039 
" clip-path="url(#p97e9fdacdb)" style="fill: none; stroke: #737373; stroke-opacity: 0.4; stroke-width: 2.267767"/>
    <path d="M 100.230545 140.294208 
L 138.939043 220.445197 
" clip-path="url(#p97e9fdacdb)" style="fill: none; stroke: #737373; stroke-opacity: 0.4; stroke-width: 2.030931"/>
    <path d="M 138.939043 220.445197 
L 131.787186 248.942047 
" clip-path="url(#p97e9fdacdb)" style="fill: none; stroke: #737373; stroke-opacity: 0.4; stroke-width: 3"/>
    <path d="M 138.939043 220.445197 
L 151.196793 262.117726 
" clip-path="url(#p97e9fdacdb)" style="fill: none; stroke: #737373; stroke-opacity: 0.4; stroke-width: 2.476424"/>
    <path d="M 138.939043 220.445197 
L 183.213765 252.992162 
" clip-path="url(#p97e9fdacdb)" style="fill: none; stroke: #737373; stroke-opacity: 0.4; stroke-width: 2.267767"/>
    <path d="M 131.787186 248.942047 
L 151.196793 262.117726 
" clip-path="url(#p97e9fdacdb)" style="fill: none; stroke: #737373; stroke-opacity: 0.4; stroke-width: 2.267767"/>
    <path d="M 131.787186 248.942047 
L 126.8419 289.936857 
" clip-path="url(#p97e9fdacdb)" style="fill: none; stroke: #737373; stroke-opacity: 0.4; stroke-width: 2.030931"/>
    <path d="M 151.196793 262.117726 
L 183.213765 252.992162 
" clip-path="url(#p97e9fdacdb)" style="fill: none; stroke: #737373; stroke-opacity: 0.4; stroke-width: 2.476424"/>
    <path d="M 151.196793 262.117726 
L 147.61393 316.234711 
" clip-path="url(#p97e9fdacdb)" style="fill: none; stroke: #737373; stroke-opacity: 0.4; stroke-width: 1.75"/>
    <path d="M 151.196793 262.117726 
L 126.8419 289.936857 
" clip-path="url(#p97e9fdacdb)" style="fill: none; stroke: #737373; stroke-opacity: 0.4; stroke-width: 2.030931"/>
    <path d="M 183.213765 252.992162 
L 144.857286 293.687215 
" clip-path="url(#p97e9fdacdb)" style="fill: none; stroke: #737373; stroke-opacity: 0.4; stroke-width: 2.030931"/>
    <path d="M 183.213765 252.992162 
L 248.076885 240.751693 
" clip-path="url(#p97e9fdacdb)" style="fill: none; stroke: #737373; stroke-opacity: 0.4; stroke-width: 2.267767"/>
    <path d="M 147.61393 316.234711 
L 126.8419 289.936857 
" clip-path="url(#p97e9fdacdb)" style="fill: none; stroke: #737373; stroke-opacity: 0.4; stroke-width: 1.75"/>
    <path d="M 147.61393 316.234711 
L 144.857286 293.687215 
" clip-path="url(#p97e9fdacdb)" style="fill: none; stroke: #737373; stroke-opacity: 0.4; stroke-width: 2.476424"/>
    <path d="M 126.8419 289.936857 
L 144.857286 293.687215 
" clip-path="url(#p97e9fdacdb)" style="fill: none; stroke: #737373; stroke-opacity: 0.4; stroke-width: 2.030931"/>
    <path d="M 144.857286 293.687215 
L 78.886191 276.20843 
" clip-path="url(#p97e9fdacdb)" style="fill: none; stroke: #737373; stroke-opacity: 0.4; stroke-width: 1.75"/>
    <path d="M 78.886191 276.20843 
L 51.519266 259.742723 
" clip-path="url(#p97e9fdacdb)" style="fill: none; stroke: #737373; stroke-opacity: 0.4; stroke-width: 2.267767"/>
    <path d="M 78.886191 276.20843 
L 85.163136 241.165584 
" clip-path="url(#p97e9fdacdb)" style="fill: none; stroke: #737373; stroke-opacity: 0.4; stroke-width: 2.267767"/>
    <path d="M 51.519266 259.742723 
L 36.565289 240.82007 
" clip-path="url(#p97e9fdacdb)" style="fill: none; stroke: #737373; stroke-opacity: 0.4; stroke-width: 2.030931"/>
    <path d="M 51.519266 259.742723 
L 85.163136 241.165584 
" clip-path="url(#p97e9fdacdb)" style="fill: none; stroke: #737373; stroke-opacity: 0.4; stroke-width: 2.476424"/>
    <path d="M 36.565289 240.82007 
L 85.163136 241.165584 
" clip-path="url(#p97e9fdacdb)" style="fill: none; stroke: #737373; stroke-opacity: 0.4; stroke-width: 2.267767"/>
    <path d="M 85.163136 241.165584 
L 233.317789 198.508022 
" clip-path="url(#p97e9fdacdb)" style="fill: none; stroke: #737373; stroke-opacity: 0.4; stroke-width: 1.383883"/>
    <path d="M 233.317789 198.508022 
L 279.821731 183.590312 
" clip-path="url(#p97e9fdacdb)" style="fill: none; stroke: #737373; stroke-opacity: 0.4; stroke-width: 2.267767"/>
    <path d="M 233.317789 198.508022 
L 276.288606 165.748697 
" clip-path="url(#p97e9fdacdb)" style="fill: none; stroke: #737373; stroke-opacity: 0.4; stroke-width: 1.75"/>
    <path d="M 233.317789 198.508022 
L 277.483856 210.866933 
" clip-path="url(#p97e9fdacdb)" style="fill: none; stroke: #737373; stroke-opacity: 0.4; stroke-width: 2.267767"/>
    <path d="M 233.317789 198.508022 
L 249.656077 211.890521 
" clip-path="url(#p97e9fdacdb)" style="fill: none; stroke: #737373; stroke-opacity: 0.4; stroke-width: 3"/>
    <path d="M 279.821731 183.590312 
L 276.288606 165.748697 
" clip-path="url(#p97e9fdacdb)" style="fill: none; stroke: #737373; stroke-opacity: 0.4; stroke-width: 2.267767"/>
    <path d="M 279.821731 183.590312 
L 277.483856 210.866933 
" clip-path="url(#p97e9fdacdb)" style="fill: none; stroke: #737373; stroke-opacity: 0.4; stroke-width: 1.75"/>
    <path d="M 279.821731 183.590312 
L 316.234711 192.914673 
" clip-path="url(#p97e9fdacdb)" style="fill: none; stroke: #737373; stroke-opacity: 0.4; stroke-width: 2.030931"/>
    <path d="M 276.288606 165.748697 
L 277.483856 210.866933 
" clip-path="url(#p97e9fdacdb)" style="fill: none; stroke: #737373; stroke-opacity: 0.4; stroke-width: 1.75"/>
    <path d="M 277.483856 210.866933 
L 316.234711 192.914673 
" clip-path="url(#p97e9fdacdb)" style="fill: none; stroke: #737373; stroke-opacity: 0.4; stroke-width: 2.267767"/>
    <path d="M 277.483856 210.866933 
L 287.216616 243.094866 
" clip-path="url(#p97e9fdacdb)" style="fill: none; stroke: #737373; stroke-opacity: 0.4; stroke-width: 2.267767"/>
    <path d="M 277.483856 210.866933 
L 248.076885 240.751693 
" clip-path="url(#p97e9fdacdb)" style="fill: none; stroke: #737373; stroke-opacity: 0.4; stroke-width: 2.476424"/>
    <path d="M 277.483856 210.866933 
L 249.656077 211.890521 
" clip-path="url(#p97e9fdacdb)" style="fill: none; stroke: #737373; stroke-opacity: 0.4; stroke-width: 1.75"/>
    <path d="M 287.216616 243.094866 
L 248.076885 240.751693 
" clip-path="url(#p97e9fdacdb)" style="fill: none; stroke: #737373; stroke-opacity: 0.4; stroke-width: 2.476424"/>
    <path d="M 248.076885 240.751693 
L 249.656077 211.890521 
" clip-path="url(#p97e9fdacdb)" style="fill: none; stroke: #737373; stroke-opacity: 0.4; stroke-width: 2.030931"/>
   </g>
   <g id="PathCollection_1">
    <path d="M 76.943738 38.697296 
C 77.509153 38.697296 78.051486 38.472655 78.451295 38.072846 
C 78.851103 37.673037 79.075745 37.130704 79.075745 36.565289 
C 79.075745 35.999874 78.851103 35.457541 78.451295 35.057733 
C 78.051486 34.657924 77.509153 34.433282 76.943738 34.433282 
C 76.378323 34.433282 75.83599 34.657924 75.436181 35.057733 
C 75.036372 35.457541 74.811731 35.999874 74.811731 36.565289 
C 74.811731 37.130704 75.036372 37.673037 75.436181 38.072846 
C 75.83599 38.472655 76.378323 38.697296 76.943738 38.697296 
z
" clip-path="url(#p97e9fdacdb)" style="fill: #1f77b4; stroke: #ffffff; stroke-width: 0.8"/>
    <path d="M 83.612294 100.84131 
C 85.444447 100.84131 87.201808 100.113387 88.497336 98.817859 
C 89.792864 97.522331 90.520787 95.76497 90.520787 93.932817 
C 90.520787 92.100663 89.792864 90.343303 88.497336 89.047775 
C 87.201808 87.752246 85.444447 87.024324 83.612294 87.024324 
C 81.78014 87.024324 80.02278 87.752246 78.727252 89.047775 
C 77.431723 90.343303 76.703801 92.100663 76.703801 93.932817 
C 76.703801 95.76497 77.431723 97.522331 78.727252 98.817859 
C 80.02278 100.113387 81.78014 100.84131 83.612294 100.84131 
z
" clip-path="url(#p97e9fdacdb)" style="fill: #1f77b4; stroke: #ffffff; stroke-width: 0.8"/>
    <path d="M 100.509018 120.798706 
C 101.893996 120.798706 103.222435 120.248448 104.201762 119.269121 
C 105.18109 118.289793 105.731347 116.961354 105.731347 115.576376 
C 105.731347 114.191398 105.18109 112.862959 104.201762 111.883631 
C 103.222435 110.904304 101.893996 110.354046 100.509018 110.354046 
C 99.12404 110.354046 97.7956 110.904304 96.816273 111.883631 
C 95.836946 112.862959 95.286688 114.191398 95.286688 115.576376 
C 95.286688 116.961354 95.836946 118.289793 96.816273 119.269121 
C 97.7956 120.248448 99.12404 120.798706 100.509018 120.798706 
z
" clip-path="url(#p97e9fdacdb)" style="fill: #1f77b4; stroke: #ffffff; stroke-width: 0.8"/>
    <path d="M 57.310902 80.647622 
C 58.441731 80.647622 59.526398 80.198338 60.326015 79.398721 
C 61.125633 78.599103 61.574916 77.514437 61.574916 76.383607 
C 61.574916 75.252778 61.125633 74.168111 60.326015 73.368494 
C 59.526398 72.568876 58.441731 72.119593 57.310902 72.119593 
C 56.180072 72.119593 55.095406 72.568876 54.295788 73.368494 
C 53.496171 74.168111 53.046887 75.252778 53.046887 76.383607 
C 53.046887 77.514437 53.496171 78.599103 54.295788 79.398721 
C 55.095406 80.198338 56.180072 80.647622 57.310902 80.647622 
z
" clip-path="url(#p97e9fdacdb)" style="fill: #1f77b4; stroke: #ffffff; stroke-width: 0.8"/>
    <path d="M 100.230545 147.036206 
C 102.018544 147.036206 103.733552 146.325827 104.997858 145.061521 
C 106.262164 143.797215 106.972544 142.082207 106.972544 140.294208 
C 106.972544 138.506209 106.262164 136.791201 104.997858 135.526895 
C 103.733552 134.262589 102.018544 133.552209 100.230545 133.552209 
C 98.442546 133.552209 96.727538 134.262589 95.463232 135.526895 
C 94.198926 136.791201 93.488547 138.506209 93.488547 140.294208 
C 93.488547 142.082207 94.198926 143.797215 95.463232 145.061521 
C 96.727538 146.325827 98.442546 147.036206 100.230545 147.036206 
z
" clip-path="url(#p97e9fdacdb)" style="fill: #1f77b4; stroke: #ffffff; stroke-width: 0.8"/>
    <path d="M 67.768202 113.241368 
C 69.15318 113.241368 70.481619 112.691111 71.460946 111.711783 
C 72.440274 110.732456 72.990531 109.404017 72.990531 108.019039 
C 72.990531 106.63406 72.440274 105.305621 71.460946 104.326294 
C 70.481619 103.346966 69.15318 102.796709 67.768202 102.796709 
C 66.383224 102.796709 65.054784 103.346966 64.075457 104.326294 
C 63.09613 105.305621 62.545872 106.63406 62.545872 108.019039 
C 62.545872 109.404017 63.09613 110.732456 64.075457 111.711783 
C 65.054784 112.691111 66.383224 113.241368 67.768202 113.241368 
z
" clip-path="url(#p97e9fdacdb)" style="fill: #1f77b4; stroke: #ffffff; stroke-width: 0.8"/>
    <path d="M 138.939043 227.187195 
C 140.727042 227.187195 142.44205 226.476816 143.706356 225.21251 
C 144.970662 223.948203 145.681042 222.233196 145.681042 220.445197 
C 145.681042 218.657198 144.970662 216.94219 143.706356 215.677884 
C 142.44205 214.413577 140.727042 213.703198 138.939043 213.703198 
C 137.151044 213.703198 135.436037 214.413577 134.17173 215.677884 
C 132.907424 216.94219 132.197045 218.657198 132.197045 220.445197 
C 132.197045 222.233196 132.907424 223.948203 134.17173 225.21251 
C 135.436037 226.476816 137.151044 227.187195 138.939043 227.187195 
z
" clip-path="url(#p97e9fdacdb)" style="fill: #ff7f0e; stroke: #ffffff; stroke-width: 0.8"/>
    <path d="M 131.787186 254.780789 
C 133.335639 254.780789 134.820879 254.165583 135.9158 253.070661 
C 137.010721 251.97574 137.625928 250.4905 137.625928 248.942047 
C 137.625928 247.393595 137.010721 245.908354 135.9158 244.813433 
C 134.820879 243.718512 133.335639 243.103305 131.787186 243.103305 
C 130.238734 243.103305 128.753493 243.718512 127.658572 244.813433 
C 126.563651 245.908354 125.948444 247.393595 125.948444 248.942047 
C 125.948444 250.4905 126.563651 251.97574 127.658572 253.070661 
C 128.753493 254.165583 130.238734 254.780789 131.787186 254.780789 
z
" clip-path="url(#p97e9fdacdb)" style="fill: #ff7f0e; stroke: #ffffff; stroke-width: 0.8"/>
    <path d="M 151.196793 268.689013 
C 152.939519 268.689013 154.611102 267.996621 155.843395 266.764328 
C 157.075688 265.532035 157.768081 263.860452 157.768081 262.117726 
C 157.768081 260.375 157.075688 258.703417 155.843395 257.471124 
C 154.611102 256.238831 152.939519 255.546438 151.196793 255.546438 
C 149.454068 255.546438 147.782485 256.238831 146.550191 257.471124 
C 145.317898 258.703417 144.625506 260.375 144.625506 262.117726 
C 144.625506 263.860452 145.317898 265.532035 146.550191 266.764328 
C 147.782485 267.996621 149.454068 268.689013 151.196793 268.689013 
z
" clip-path="url(#p97e9fdacdb)" style="fill: #ff7f0e; stroke: #ffffff; stroke-width: 0.8"/>
    <path d="M 183.213765 259.022389 
C 184.813 259.022389 186.34695 258.387006 187.47778 257.256176 
C 188.60861 256.125346 189.243992 254.591397 189.243992 252.992162 
C 189.243992 251.392927 188.60861 249.858977 187.47778 248.728148 
C 186.34695 247.597318 184.813 246.961935 183.213765 246.961935 
C 181.614531 246.961935 180.080581 247.597318 178.949751 248.728148 
C 177.818921 249.858977 177.183539 251.392927 177.183539 252.992162 
C 177.183539 254.591397 177.818921 256.125346 178.949751 257.256176 
C 180.080581 258.387006 181.614531 259.022389 183.213765 259.022389 
z
" clip-path="url(#p97e9fdacdb)" style="fill: #ff7f0e; stroke: #ffffff; stroke-width: 0.8"/>
    <path d="M 147.61393 320.757381 
C 148.813356 320.757381 149.963819 320.280844 150.811941 319.432721 
C 151.660063 318.584599 152.1366 317.434137 152.1366 316.234711 
C 152.1366 315.035285 151.660063 313.884822 150.811941 313.0367 
C 149.963819 312.188578 148.813356 311.712041 147.61393 311.712041 
C 146.414504 311.712041 145.264042 312.188578 144.415919 313.0367 
C 143.567797 313.884822 143.09126 315.035285 143.09126 316.234711 
C 143.09126 317.434137 143.567797 318.584599 144.415919 319.432721 
C 145.264042 320.280844 146.414504 320.757381 147.61393 320.757381 
z
" clip-path="url(#p97e9fdacdb)" style="fill: #ff7f0e; stroke: #ffffff; stroke-width: 0.8"/>
    <path d="M 126.8419 294.936857 
C 128.167915 294.936857 129.439799 294.410026 130.377434 293.472391 
C 131.315068 292.534757 131.8419 291.262873 131.8419 289.936857 
C 131.8419 288.610842 131.315068 287.338958 130.377434 286.401323 
C 129.439799 285.463689 128.167915 284.936857 126.8419 284.936857 
C 125.515884 284.936857 124.244 285.463689 123.306366 286.401323 
C 122.368731 287.338958 121.8419 288.610842 121.8419 289.936857 
C 121.8419 291.262873 122.368731 292.534757 123.306366 293.472391 
C 124.244 294.410026 125.515884 294.936857 126.8419 294.936857 
z
" clip-path="url(#p97e9fdacdb)" style="fill: #ff7f0e; stroke: #ffffff; stroke-width: 0.8"/>
    <path d="M 144.857286 299.122788 
C 146.298816 299.122788 147.6815 298.550062 148.700816 297.530746 
C 149.720132 296.51143 150.292859 295.128746 150.292859 293.687215 
C 150.292859 292.245684 149.720132 290.863001 148.700816 289.843685 
C 147.6815 288.824368 146.298816 288.251642 144.857286 288.251642 
C 143.415755 288.251642 142.033071 288.824368 141.013755 289.843685 
C 139.994439 290.863001 139.421712 292.245684 139.421712 293.687215 
C 139.421712 295.128746 139.994439 296.51143 141.013755 297.530746 
C 142.033071 298.550062 143.415755 299.122788 144.857286 299.122788 
z
" clip-path="url(#p97e9fdacdb)" style="fill: #ff7f0e; stroke: #ffffff; stroke-width: 0.8"/>
    <path d="M 78.886191 280.975743 
C 80.150497 280.975743 81.363191 280.473429 82.25719 279.57943 
C 83.15119 278.68543 83.653504 277.472737 83.653504 276.20843 
C 83.653504 274.944124 83.15119 273.731431 82.25719 272.837431 
C 81.363191 271.943432 80.150497 271.441118 78.886191 271.441118 
C 77.621885 271.441118 76.409191 271.943432 75.515192 272.837431 
C 74.621192 273.731431 74.118878 274.944124 74.118878 276.20843 
C 74.118878 277.472737 74.621192 278.68543 75.515192 279.57943 
C 76.409191 280.473429 77.621885 280.975743 78.886191 280.975743 
z
" clip-path="url(#p97e9fdacdb)" style="fill: #2ca02c; stroke: #ffffff; stroke-width: 0.8"/>
    <path d="M 51.519266 264.965052 
C 52.904244 264.965052 54.232683 264.414795 55.212011 263.435467 
C 56.191338 262.45614 56.741596 261.127701 56.741596 259.742723 
C 56.741596 258.357745 56.191338 257.029305 55.212011 256.049978 
C 54.232683 255.070651 52.904244 254.520393 51.519266 254.520393 
C 50.134288 254.520393 48.805848 255.070651 47.826521 256.049978 
C 46.847194 257.029305 46.296936 258.357745 46.296936 259.742723 
C 46.296936 261.127701 46.847194 262.45614 47.826521 263.435467 
C 48.805848 264.414795 50.134288 264.965052 51.519266 264.965052 
z
" clip-path="url(#p97e9fdacdb)" style="fill: #2ca02c; stroke: #ffffff; stroke-width: 0.8"/>
    <path d="M 36.565289 244.808691 
C 37.623084 244.808691 38.637696 244.388424 39.38567 243.640451 
C 40.133643 242.892477 40.553909 241.877865 40.553909 240.82007 
C 40.553909 239.762276 40.133643 238.747664 39.38567 237.99969 
C 38.637696 237.251716 37.623084 236.83145 36.565289 236.83145 
C 35.507495 236.83145 34.492883 237.251716 33.744909 237.99969 
C 32.996935 238.747664 32.576669 239.762276 32.576669 240.82007 
C 32.576669 241.877865 32.996935 242.892477 33.744909 243.640451 
C 34.492883 244.388424 35.507495 244.808691 36.565289 244.808691 
z
" clip-path="url(#p97e9fdacdb)" style="fill: #2ca02c; stroke: #ffffff; stroke-width: 0.8"/>
    <path d="M 85.163136 246.806345 
C 86.659083 246.806345 88.093961 246.211999 89.151756 245.154205 
C 90.20955 244.09641 90.803896 242.661532 90.803896 241.165584 
C 90.803896 239.669637 90.20955 238.234759 89.151756 237.176964 
C 88.093961 236.11917 86.659083 235.524824 85.163136 235.524824 
C 83.667188 235.524824 82.23231 236.11917 81.174515 237.176964 
C 80.116721 238.234759 79.522375 239.669637 79.522375 241.165584 
C 79.522375 242.661532 80.116721 244.09641 81.174515 245.154205 
C 82.23231 246.211999 83.667188 246.806345 85.163136 246.806345 
z
" clip-path="url(#p97e9fdacdb)" style="fill: #2ca02c; stroke: #ffffff; stroke-width: 0.8"/>
    <path d="M 233.317789 205.079309 
C 235.060515 205.079309 236.732098 204.386917 237.964391 203.154624 
C 239.196684 201.922331 239.889077 200.250748 239.889077 198.508022 
C 239.889077 196.765296 239.196684 195.093713 237.964391 193.86142 
C 236.732098 192.629127 235.060515 191.936734 233.317789 191.936734 
C 231.575063 191.936734 229.903481 192.629127 228.671187 193.86142 
C 227.438894 195.093713 226.746502 196.765296 226.746502 198.508022 
C 226.746502 200.250748 227.438894 201.922331 228.671187 203.154624 
C 229.903481 204.386917 231.575063 205.079309 233.317789 205.079309 
z
" clip-path="url(#p97e9fdacdb)" style="fill: #d62728; stroke: #ffffff; stroke-width: 0.8"/>
    <path d="M 279.821731 189.025885 
C 281.263262 189.025885 282.645945 188.453159 283.665261 187.433843 
C 284.684578 186.414526 285.257304 185.031843 285.257304 183.590312 
C 285.257304 182.148781 284.684578 180.766098 283.665261 179.746782 
C 282.645945 178.727465 281.263262 178.154739 279.821731 178.154739 
C 278.3802 178.154739 276.997516 178.727465 275.9782 179.746782 
C 274.958884 180.766098 274.386158 182.148781 274.386158 183.590312 
C 274.386158 185.031843 274.958884 186.414526 275.9782 187.433843 
C 276.997516 188.453159 278.3802 189.025885 279.821731 189.025885 
z
" clip-path="url(#p97e9fdacdb)" style="fill: #d62728; stroke: #ffffff; stroke-width: 0.8"/>
    <path d="M 276.288606 170.012712 
C 277.419436 170.012712 278.504102 169.563428 279.30372 168.763811 
C 280.103337 167.964193 280.552621 166.879527 280.552621 165.748697 
C 280.552621 164.617867 280.103337 163.533201 279.30372 162.733584 
C 278.504102 161.933966 277.419436 161.484683 276.288606 161.484683 
C 275.157776 161.484683 274.07311 161.933966 273.273493 162.733584 
C 272.473875 163.533201 272.024592 164.617867 272.024592 165.748697 
C 272.024592 166.879527 272.473875 167.964193 273.273493 168.763811 
C 274.07311 169.563428 275.157776 170.012712 276.288606 170.012712 
z
" clip-path="url(#p97e9fdacdb)" style="fill: #d62728; stroke: #ffffff; stroke-width: 0.8"/>
    <path d="M 277.483856 218.096921 
C 279.401271 218.096921 281.240412 217.335124 282.596229 215.979307 
C 283.952047 214.623489 284.713844 212.784348 284.713844 210.866933 
C 284.713844 208.949518 283.952047 207.110377 282.596229 205.754559 
C 281.240412 204.398742 279.401271 203.636945 277.483856 203.636945 
C 275.56644 203.636945 273.727299 204.398742 272.371482 205.754559 
C 271.015665 207.110377 270.253868 208.949518 270.253868 210.866933 
C 270.253868 212.784348 271.015665 214.623489 272.371482 215.979307 
C 273.727299 217.335124 275.56644 218.096921 277.483856 218.096921 
z
" clip-path="url(#p97e9fdacdb)" style="fill: #d62728; stroke: #ffffff; stroke-width: 0.8"/>
    <path d="M 316.234711 196.903293 
C 317.292505 196.903293 318.307117 196.483027 319.055091 195.735053 
C 319.803065 194.98708 320.223331 193.972467 320.223331 192.914673 
C 320.223331 191.856878 319.803065 190.842266 319.055091 190.094292 
C 318.307117 189.346319 317.292505 188.926053 316.234711 188.926053 
C 315.176916 188.926053 314.162304 189.346319 313.41433 190.094292 
C 312.666357 190.842266 312.246091 191.856878 312.246091 192.914673 
C 312.246091 193.972467 312.666357 194.98708 313.41433 195.735053 
C 314.162304 196.483027 315.176916 196.903293 316.234711 196.903293 
z
" clip-path="url(#p97e9fdacdb)" style="fill: #d62728; stroke: #ffffff; stroke-width: 0.8"/>
    <path d="M 287.216616 247.617536 
C 288.416042 247.617536 289.566504 247.140999 290.414626 246.292877 
C 291.262749 245.444754 291.739286 244.294292 291.739286 243.094866 
C 291.739286 241.89544 291.262749 240.744977 290.414626 239.896855 
C 289.566504 239.048733 288.416042 238.572196 287.216616 238.572196 
C 286.01719 238.572196 284.866727 239.048733 284.018605 239.896855 
C 283.170483 240.744977 282.693946 241.89544 282.693946 243.094866 
C 282.693946 244.294292 283.170483 245.444754 284.018605 246.292877 
C 284.866727 247.140999 286.01719 247.617536 287.216616 247.617536 
z
" clip-path="url(#p97e9fdacdb)" style="fill: #d62728; stroke: #ffffff; stroke-width: 0.8"/>
    <path d="M 248.076885 246.967509 
C 249.725338 246.967509 251.306497 246.312571 252.47213 245.146939 
C 253.637763 243.981306 254.2927 242.400147 254.2927 240.751693 
C 254.2927 239.10324 253.637763 237.522081 252.47213 236.356448 
C 251.306497 235.190815 249.725338 234.535878 248.076885 234.535878 
C 246.428431 234.535878 244.847272 235.190815 243.681639 236.356448 
C 242.516007 237.522081 241.861069 239.10324 241.861069 240.751693 
C 241.861069 242.400147 242.516007 243.981306 243.681639 245.146939 
C 244.847272 246.312571 246.428431 246.967509 248.076885 246.967509 
z
" clip-path="url(#p97e9fdacdb)" style="fill: #d62728; stroke: #ffffff; stroke-width: 0.8"/>
    <path d="M 249.656077 217.326094 
C 251.097608 217.326094 252.480291 216.753368 253.499608 215.734052 
C 254.518924 214.714736 255.09165 213.332052 255.09165 211.890521 
C 255.09165 210.448991 254.518924 209.066307 253.499608 208.046991 
C 252.480291 207.027675 251.097608 206.454948 249.656077 206.454948 
C 248.214546 206.454948 246.831863 207.027675 245.812546 208.046991 
C 244.79323 209.066307 244.220504 210.448991 244.220504 211.890521 
C 244.220504 213.332052 244.79323 214.714736 245.812546 215.734052 
C 246.831863 216.753368 248.214546 217.326094 249.656077 217.326094 
z
" clip-path="url(#p97e9fdacdb)" style="fill: #d62728; stroke: #ffffff; stroke-width: 0.8"/>
   </g>
  </g>
 </g>
 <defs>
  <clipPath id="p97e9fdacdb">
   <rect x="7.2" y="7.2" width="338.4" height="338.4"/>
  </clipPath>
 </defs>
</svg>
